# File generated by ImageToStl.com - Free Image and 3D model conversion tools

o obj1
v 0.2261 0 -0.041
v -0.04550362 0 -0.041
v 0.2261 -0 0.041
v -0.04550362 -0 0.041
v -0.04550362 -0.1468 -0.041
v 0.2261 -0.1468 -0.041
v -0.04550362 -0.1468 0.041
v 0.2261 -0.1468 0.041
vn 0 1 0
vn 0 -1 0
vn -1 0 0
vn 0 0 -1
vn 0 0 1
vn 1 -0 0
f 1//1 2//1 3//1
f 2//1 4//1 3//1
f 5//2 6//2 7//2
f 6//2 8//2 7//2
f 5//3 7//3 2//3
f 7//3 4//3 2//3
f 6//4 5//4 1//4
f 5//4 2//4 1//4
f 7//5 8//5 4//5
f 8//5 3//5 4//5
f 8//6 6//6 3//6
f 6//6 1//6 3//6
# Vertices: 8, normals: 6, texture coordinates: 0, faces: 12

