# File generated by ImageToStl.com - Free Image and 3D model conversion tools

o obj1
v -0.20860362 0.156 -0.041
v 0.063 0.156 -0.041
v -0.20860362 0.156 0.041
v 0.063 0.156 0.041
v 0.063 0.3028 -0.041
v -0.20860362 0.3028 -0.041
v 0.063 0.3028 0.041
v -0.20860362 0.3028 0.041
vn 0 -1 0
vn 0 1 -0
vn -1 -0 -0
vn 0 0 -1
vn 0 0 1
vn 1 0 -0
f 1//1 2//1 3//1
f 2//1 4//1 3//1
f 5//2 6//2 7//2
f 6//2 8//2 7//2
f 8//3 6//3 3//3
f 6//3 1//3 3//3
f 6//4 5//4 1//4
f 5//4 2//4 1//4
f 7//5 8//5 4//5
f 8//5 3//5 4//5
f 5//6 7//6 2//6
f 7//6 4//6 2//6
# Vertices: 8, normals: 6, texture coordinates: 0, faces: 12

